<?xml version="1.0" encoding="utf-8"?>
<!-- Generator: Adobe Illustrator 24.1.3, SVG Export Plug-In . SVG Version: 6.00 Build 0)  -->
<svg version="1.1" id="Layer_1" xmlns="http://www.w3.org/2000/svg" xmlns:xlink="http://www.w3.org/1999/xlink" x="0px" y="0px"
	 viewBox="0 0 350 84" style="enable-background:new 0 0 350 84;" xml:space="preserve">
<style type="text/css">
	.st0{fill:#333333;}
	.st1{fill:#2376A8;}
</style>
<g>
	<path class="st0" d="M123,65.3c-2.3,0-4.6-0.1-6.8-0.2c-2.3-0.1-4.6-0.5-7.1-1V23.8c1.9-0.4,4-0.6,6.3-0.8s4.4-0.3,6.4-0.3
		c2.6,0,5.1,0.2,7.3,0.6c2.2,0.4,4.1,1,5.7,2c1.6,0.9,2.9,2.1,3.8,3.6s1.4,3.4,1.4,5.6c0,3.3-1.6,5.9-4.8,7.9c2.6,1,4.4,2.4,5.4,4.1
		c1,1.7,1.4,3.7,1.4,5.8c0,4.4-1.6,7.6-4.8,9.8C134,64.2,129.2,65.3,123,65.3z M118.2,39.5h4.6c2.9,0,4.9-0.4,6.2-1.1
		c1.2-0.7,1.9-1.9,1.9-3.6s-0.6-2.9-1.9-3.5c-1.3-0.7-3.2-1-5.6-1c-0.8,0-1.7,0-2.6,0s-1.7,0.1-2.5,0.2L118.2,39.5L118.2,39.5z
		 M118.2,46.6v10.7c0.7,0.1,1.4,0.1,2.2,0.2c0.8,0,1.7,0.1,2.6,0.1c2.8,0,5.1-0.4,6.8-1.2c1.7-0.8,2.6-2.3,2.6-4.4
		c0-1.9-0.7-3.3-2.2-4.1c-1.4-0.8-3.5-1.2-6.2-1.2L118.2,46.6L118.2,46.6z"/>
	<path class="st0" d="M175.1,63.7c-1.5,0.4-3.5,0.9-5.9,1.2c-2.4,0.4-4.9,0.6-7.6,0.6c-2.7,0-4.9-0.4-6.7-1.1
		c-1.8-0.7-3.2-1.7-4.2-3s-1.8-2.8-2.2-4.6s-0.7-3.8-0.7-5.9V33.2h8.9v16.5c0,2.9,0.4,5,1.1,6.2c0.8,1.3,2.2,1.9,4.3,1.9
		c0.6,0,1.3,0,2-0.1s1.4-0.1,1.9-0.2V33.2h8.9v30.5H175.1z"/>
	<path class="st0" d="M195.3,65.4c-2.6,0-4.7-0.3-6.3-0.8s-2.9-1.3-3.8-2.2c-0.9-0.9-1.6-2.1-1.9-3.4c-0.3-1.3-0.5-2.8-0.5-4.5V19.6
		l8.9-1.4v34.4c0,0.8,0.1,1.5,0.2,2.2c0.1,0.6,0.4,1.2,0.7,1.6c0.3,0.4,0.8,0.8,1.5,1.1c0.6,0.3,1.5,0.5,2.6,0.5L195.3,65.4z"/>
	<path class="st0" d="M219.4,46.6c-0.8,3-1.7,6.1-2.6,9.1c-0.9,3-1.9,6-2.8,9.1h-7c-0.7-1.7-1.5-3.7-2.3-6s-1.7-4.8-2.6-7.6
		c-0.9-2.7-1.8-5.6-2.8-8.7s-1.9-6.1-2.7-9.3h9.4c0.3,1.4,0.7,3,1.1,4.7c0.4,1.7,0.8,3.5,1.2,5.3s0.9,3.6,1.3,5.4s0.9,3.6,1.4,5.3
		c0.5-1.8,1-3.6,1.5-5.4c0.5-1.8,1-3.6,1.4-5.4c0.5-1.8,0.9-3.5,1.3-5.2c0.4-1.7,0.8-3.2,1.1-4.6h6.5c0.3,1.4,0.7,3,1.1,4.6
		c0.4,1.7,0.8,3.4,1.3,5.2c0.4,1.8,0.9,3.6,1.4,5.4c0.5,1.8,1,3.6,1.5,5.4c0.5-1.7,1-3.4,1.4-5.3c0.5-1.8,0.9-3.6,1.4-5.4
		c0.4-1.8,0.8-3.5,1.2-5.3c0.4-1.7,0.7-3.3,1.1-4.7h9.3c-0.9,3.1-1.8,6.2-2.7,9.3s-1.9,6-2.8,8.7s-1.8,5.3-2.6,7.6
		c-0.9,2.3-1.7,4.3-2.4,6h-7c-1-3-2-6.1-2.9-9.1S220.2,49.7,219.4,46.6z"/>
	<path class="st0" d="M257.5,32.4c2.6,0,4.8,0.3,6.6,0.9c1.8,0.6,3.2,1.5,4.2,2.6c1.1,1.1,1.8,2.5,2.3,4.1c0.4,1.6,0.7,3.4,0.7,5.3
		v18.6c-1.3,0.3-3.1,0.6-5.3,1s-5,0.6-8.3,0.6c-2,0-3.9-0.2-5.5-0.5c-1.7-0.4-3.1-1-4.3-1.8s-2.1-1.9-2.8-3.2c-0.6-1.3-1-2.9-1-4.9
		c0-1.8,0.4-3.4,1.1-4.7c0.7-1.3,1.7-2.3,3-3.1c1.2-0.8,2.7-1.3,4.3-1.6s3.3-0.5,5-0.5c1.2,0,2.2,0.1,3.1,0.1
		c0.9,0.1,1.6,0.2,2.2,0.4v-0.8c0-1.5-0.5-2.7-1.4-3.7c-0.9-0.9-2.5-1.4-4.8-1.4c-1.5,0-3,0.1-4.5,0.3s-2.8,0.5-3.8,0.9l-1.1-7.2
		c0.5-0.2,1.2-0.3,2-0.5s1.6-0.3,2.5-0.5c0.9-0.1,1.9-0.3,2.9-0.4C255.4,32.4,256.5,32.4,257.5,32.4z M258.2,58.5
		c0.9,0,1.7,0,2.5-0.1c0.8,0,1.4-0.1,1.9-0.2v-6.8c-0.4-0.1-0.9-0.2-1.6-0.2s-1.4-0.1-2-0.1c-0.8,0-1.6,0.1-2.4,0.1
		c-0.7,0.1-1.4,0.3-2,0.6s-1,0.7-1.3,1.1c-0.3,0.5-0.5,1.1-0.5,1.8c0,1.4,0.5,2.4,1.4,2.9C255.3,58.3,256.6,58.5,258.2,58.5z"/>
	<path class="st0" d="M297.6,41.1c-0.8-0.2-1.7-0.4-2.8-0.6c-1.1-0.2-2.2-0.3-3.5-0.3c-0.6,0-1.2,0.1-2,0.1
		c-0.8,0.1-1.4,0.2-1.8,0.3v24.1h-8.9V34.9c1.6-0.6,3.5-1.1,5.7-1.6s4.6-0.8,7.3-0.8c0.5,0,1.1,0,1.7,0.1c0.7,0.1,1.4,0.1,2,0.2
		c0.7,0.1,1.4,0.2,2,0.4c0.7,0.1,1.3,0.3,1.7,0.5L297.6,41.1z"/>
	<path class="st0" d="M330.7,63.7c-0.8,0.2-1.7,0.5-2.8,0.7c-1,0.2-2.1,0.4-3.3,0.6c-1.1,0.2-2.3,0.3-3.5,0.4s-2.3,0.1-3.4,0.1
		c-2.6,0-4.9-0.4-7-1.1c-2-0.8-3.8-1.8-5.2-3.3c-1.4-1.4-2.5-3.1-3.2-5.2c-0.7-2-1.1-4.3-1.1-6.8c0-2.6,0.3-4.9,1-6.9
		c0.6-2.1,1.6-3.8,2.8-5.3c1.2-1.4,2.7-2.5,4.4-3.3c1.7-0.8,3.7-1.1,6-1.1c1.2,0,2.3,0.1,3.3,0.4c1,0.2,2,0.6,3,1V19.6l8.9-1.4v45.5
		H330.7z M310.4,48.7c0,2.8,0.6,5,1.9,6.7c1.2,1.7,3.1,2.5,5.5,2.5c0.8,0,1.5,0,2.2-0.1s1.2-0.1,1.7-0.2V41.4
		c-0.6-0.4-1.3-0.7-2.2-0.9c-0.9-0.2-1.8-0.4-2.7-0.4C312.6,40.1,310.4,43,310.4,48.7z"/>
</g>
<g>
	<g>
		<path class="st1" d="M21.5,22.6c2.4,0,5.1,1.8,6,4c0.7,1.9,0,3.4-1.8,3.9l17.6,22.4L92.6,52V19.8c0-1.1-0.9-2-2-2l-74.4-2
			c-0.9,0-1.3,1.1-0.7,1.7l4.3,5.5C20.2,22.7,20.8,22.6,21.5,22.6z M76.6,30.6h12c0.6,0,1,0.4,1,1s-0.4,1-1,1h-12c-0.6,0-1-0.4-1-1
			S76.1,30.6,76.6,30.6z M58.2,30.6h12c0.6,0,1,0.4,1,1s-0.4,1-1,1h-12c-0.6,0-1-0.4-1-1S57.7,30.6,58.2,30.6z M39.6,22.6
			c2.4,0,4.5,1.8,4.8,4c0.2,2.2-1.6,4-4,4s-4.5-1.8-4.8-4C35.4,24.4,37.2,22.6,39.6,22.6z"/>
	</g>
	<g>
		<path class="st1" d="M43.4,53L52,64c1.1,1.1,2.7,1.8,4.2,1.8h34.4c1.1,0,2-0.9,2-2V54L43.4,53z"/>
	</g>
</g>
</svg>
